<svg width="200" height="200" viewBox="0 0 200 200" xmlns="http://www.w3.org/2000/svg">
  <!-- Lemon body -->
  <ellipse cx="100" cy="110" rx="50" ry="75" fill="#F6E05E" stroke="#E5D048" stroke-width="2"/>
  
  <!-- Lemon top curve -->
  <path d="M 75 50 Q 100 30 125 50 Q 115 60 100 55 Q 85 60 75 50" fill="#F6E05E" stroke="#E5D048" stroke-width="2"/>
  
  <!-- Lemon bottom curve -->
  <path d="M 75 170 Q 100 190 125 170 Q 115 160 100 165 Q 85 160 75 170" fill="#F6E05E" stroke="#E5D048" stroke-width="2"/>
  
  <!-- Lemon leaf -->
  <ellipse cx="100" cy="40" rx="8" ry="15" fill="#22C55E" stroke="#16A34A" stroke-width="1"/>
  
  <!-- Lemon texture lines -->
  <path d="M 80 80 Q 100 85 120 80" stroke="#E5D048" stroke-width="1" fill="none"/>
  <path d="M 80 100 Q 100 105 120 100" stroke="#E5D048" stroke-width="1" fill="none"/>
  <path d="M 80 120 Q 100 125 120 120" stroke="#E5D048" stroke-width="1" fill="none"/>
  <path d="M 80 140 Q 100 145 120 140" stroke="#E5D048" stroke-width="1" fill="none"/>
</svg>