<svg viewBox="0 0 200 120" xmlns="http://www.w3.org/2000/svg">
  <defs>
    <linearGradient id="sneaker1" x1="0%" y1="0%" x2="100%" y2="100%">
      <stop offset="0%" style="stop-color:#3B82F6;stop-opacity:1" />
      <stop offset="100%" style="stop-color:#1E40AF;stop-opacity:1" />
    </linearGradient>
  </defs>
  <!-- Sneaker sole -->
  <ellipse cx="100" cy="100" rx="80" ry="15" fill="#2D3748"/>
  <!-- Main shoe body -->
  <path d="M20 80 C20 70, 30 60, 50 60 L140 60 C160 60, 170 70, 170 80 L170 90 C170 95, 165 100, 160 100 L30 100 C25 100, 20 95, 20 90 Z" fill="url(#sneaker1)"/>
  <!-- Shoe accent -->
  <path d="M50 60 C70 55, 120 55, 140 60 L140 70 C120 65, 70 65, 50 70 Z" fill="#FFFFFF" opacity="0.3"/>
  <!-- Laces -->
  <circle cx="80" cy="70" r="2" fill="#FFFFFF"/>
  <circle cx="95" cy="70" r="2" fill="#FFFFFF"/>
  <circle cx="110" cy="70" r="2" fill="#FFFFFF"/>
  <circle cx="125" cy="70" r="2" fill="#FFFFFF"/>
</svg>